<?xml version="1.0" encoding="utf-8"?>
<!-- Generator: Adobe Illustrator 26.0.2, SVG Export Plug-In . SVG Version: 6.00 Build 0)  -->
<svg version="1.1" xmlns="http://www.w3.org/2000/svg" xmlns:xlink="http://www.w3.org/1999/xlink" x="0px" y="0px"
	 viewBox="0 0 360 360" style="enable-background:new 0 0 360 360;" xml:space="preserve">
<style type="text/css">
	.st0{display:none;}
	.st1{display:inline;}
	.st2{display:inline;fill:#D6A0C9;}
	.st3{display:inline;fill:none;}
	.st4{fill:#F26522;}
	.st5{fill:#FFFFFF;}
	.st6{fill:#D6A0C9;}
	.st7{fill:#A498CA;}
	.st8{fill:#BCBEC0;}
	.st9{fill:#F1F2F2;stroke:#000000;stroke-miterlimit:10;}
	.st10{stroke:#000000;stroke-miterlimit:10;}
	.st11{fill:#F26522;stroke:#000000;stroke-miterlimit:10;}
	.st12{fill:none;stroke:#A7A9AC;stroke-miterlimit:10;}
	.st13{opacity:0.65;fill:#928BAB;}
	.st14{opacity:0.4;fill:#AF90AB;}
	.st15{fill:#F1F2F2;}
	.st16{fill:#AF90AB;}
	.st17{fill:#808285;}
	.st18{fill:#939598;}
</style>
<g id="Layer_2" class="st0">
	<rect x="7.04" y="7.04" class="st1" width="346.21" height="346.21"/>
</g>
<g id="Layer_1" class="st0">
	<path class="st2" d="M248.09,113.96c-0.94-3.33-2.9-5.51-6-6.98c-1.59-0.75-3.2-1.77-5.05-1.3c-1.31,0.34-2.29,0.01-3.34-0.56
		c-1.32-0.73-2.53-1.58-3.69-2.52c-5.44-4.41-9-10.08-12.09-16.07c-2.46-4.77-4.11-9.89-7.22-14.37
		c-5.82-8.36-11.84-16.5-22.61-19.82c-1.48-0.46-1.53-1.65-0.88-2.59c2.12-3.07,3.38-6.66,6.21-9.3c1.78-1.66,2.55-3.61,2.03-5.95
		c-0.14-0.62-0.19-1.23-0.02-1.86c0.86-3.24,1.07-6.53,0.72-9.85c-0.15-1.43-0.2-2.83,0.72-4.15c0.52-0.75,0.52-1.85-0.34-2.4
		c-1.16-0.74-1.52-1.82-1.98-2.92c-0.8-1.93-0.48-2.64,1.79-2.79c5.48-0.36,10.95-0.53,16.26,1.28c1.72,0.59,3.28,1.49,5,2.05
		c-6.55-4.05-13.92-4.56-21.35-3.82c-2.25,0.23-4.18,0.22-6.22-0.49c-7.65-2.69-15.52-3.44-23.6-2.28
		c-7.66,1.11-15.13,2.99-22.5,5.2c-8.69,2.6-17.1,6.06-23.8,11.99c-17.03,15.08-27.99,33.28-30.87,55.49
		c-1.04,8.03-4.2,15.3-10.1,21.36c-2.37,2.44-4.77,4.87-6.61,7.7c-10.72,16.47-10.87,33.5-2.24,50.95c0.49,0.99,0.85,2.05,1.09,3.14
		c1.57,7.15,4.69,13.62,9.66,19.24c0.98,1.11,2.18,1.94,3.48,2.67c-0.64-1.07-1.43-1.99-2.12-2.98c-2.65-3.79-5.71-7.4-6.71-12.01
		c-1.72-7.91,1.1-14.88,5.14-21.58l-0.05,0.03c1.4-3.04,1.48-6.29,1.8-9.53c0.72-7.19,1.66-14.33,7.5-19.83
		c1.22-1.15,2.43-2.29,3.71-3.37c0.48-0.4,1.62-0.79,0.97-1.52c-0.5-0.56-1.08,0.38-1.58,0.69c-2.78,1.72-4.37,5.02-8.14,5.44
		c-0.23,0.03-0.44,0.27-0.65,0.42c-2.13,1.44-3.83,3.22-5.14,5.38c-3.08,5.06-4.52,10.63-5.9,16.23c-0.73,2.99-1.17,6-0.99,9.1
		c0.39,6.72,2.51,13.23,2.52,19.95c-1.15-2.58-2.55-5.21-2.83-8.12c-0.11-1.17-0.35-2.2-0.92-3.16c-5.77-9.68-7.26-20.2-5.91-30.98
		c1.26-10.1,5.78-19.03,13.33-26.42c5.33-5.23,8.72-11.43,10.43-18.43c0.88-3.58,1.23-7.26,1.94-10.88
		c2.99-15.34,10.98-28.32,21.14-40.34c6.88-8.14,15.5-13.86,25.59-17.76c7.67-2.96,15.69-4.76,23.77-6.45
		c9.38-1.96,18.55-1.74,27.77,0.99c2.95,0.87,4.2,2.45,4.63,4.96c0.74,4.38,1.04,8.81,0.87,13.25c-0.06,1.66-0.12,3.48-1.14,4.89
		c-1.38,1.92-2.42,3.96-3.46,6.04c-0.17,0.33-0.45,0.58-0.78,0.74c-2.45,1.14-3.81,3.28-5.4,5.19c-0.82,0.99-1.58,2.02-2.28,3.09
		c-0.84,1.28-1.42,1.8-2.01,0.33c-0.86-2.17-2.43-3.88-4.5-5.08c-4.3-2.49-8.91-3.42-14.01-2.87c-8.19,0.89-15.61,3.23-20.59,9.74
		c-1.55,2.02-3.54,3.13-5.42,4.55c-2.83,2.14-5.16,4.66-6.76,7.74c-3.01,5.8-5.07,11.92-6.54,18.22c-0.07,0.32-0.3,0.75,0.36,0.99
		c0.6-0.53,0.64-1.29,0.8-1.98c1.3-5.5,3.07-10.85,5.68-15.93c3.24-6.31,8.25-10.91,15.56-12.31c12.71-2.44,25.23-1.86,36.79,4.47
		c7.12,3.91,13.71,8.52,18.72,14.83c2.3,2.89,4.34,5.97,6.64,8.87c5.71,7.21,10.02,15.11,13.56,23.44c1.22,2.86,2.04,5.79,2.35,8.87
		c0.07,0.67-0.09,1.51,0.7,1.92c0.79-0.27,0.14-1.74,1-1.35c1.93,0.87,3.18-0.56,4.74-0.86c0.5-0.1,1.09-0.51,1.47-0.05
		c0.37,0.46-0.18,0.93-0.45,1.32c-2.62,3.85-4.84,7.88-6.37,12.23c-0.1,0.29-0.18,0.61-0.69,0.69c0.31-3.34,1.25-6.64,0.39-9.99
		c-1.19,7.39-1.32,14.93-4.3,22.02c0.78-0.37,0.91-1.04,1.15-1.64c1.18-2.98,2.24-6,3.57-8.92c1.64-3.59,2.65-7.47,5.3-10.61
		c1.6-3.22,3.27-6.41,6.25-8.73c1.23-0.96,2.78-1.52,4.4-1.12c1.46,0.36,2.84,1.01,4.09,1.85c4.04,2.74,5.75,10.4,3.36,14.98
		c-1.47,2.81-3.61,5.23-5.26,7.93c-2.26,3.72-4.88,7.18-8.53,9.75c-4.34,3.06-8.96,5.63-14.76,4.76c-1.23-0.19-1.89,0.4-2.55,1.33
		c-4.49,6.37-9.67,12.18-16.03,17c-9.71,7.36-20.21,13.39-32.03,17.28c-6.5,2.13-12.96,4.3-19.81,5.22
		c-6.96,0.94-12.25-1.56-15.67-7.3c-2.79-4.68-5.63-9.34-8.68-13.87c-6.84-10.14-11.45-21.06-13.73-32.88
		c-0.15-0.75,0.05-2.3-0.91-2.12c-1.11,0.2-0.51,1.59-0.33,2.46c1.9,9.13,5.24,17.82,9.86,25.99c3.89,6.87,8.51,13.38,12.63,20.14
		c1.38,2.27,2.96,4.26,5.1,5.88c0.19,0.14,0.38,0.66,0.89,1.11c0.89,0.78,1.61,0.73,2.22,1.17c0.77,0.55,0.92,1.55,1.06,3.36
		c0.31,3.94,0.05,5.04,0.26,7.91c0.11,1.52,0.22,1.72,0.29,3.31c0.07,1.59,0.1,2.38-0.08,2.95c-0.57,1.77-1.99,1.4-3.49,3.36
		c-0.81,1.06-1.26,2.71-2.17,6c-0.2,0.72-0.35,1.32-0.44,1.72c0.03,0.24,0.07,0.47,0.1,0.71c0.32,2.39,0.48,4.7,0.52,6.93
		c-0.67-0.18-1.22,0-1.35,0.31c-0.02,0.06-0.07,0.21,0.04,0.45v5.26c0,0.61-0.19,1.17-0.51,1.66c0,0.02,0,0.04,0,0.06
		c-0.24,1.28-0.25,2.6-0.7,3.86c-3,8.31-7.38,15.95-12.08,23.51c-5.83,9.38-13.07,17.72-20.36,26.02c-4.2,4.79-9.32,8.86-13.1,14.02
		c-2.18,2.97-4.91,5.58-6.62,8.86c-0.94,1.8-2.01,3.51-3.16,5.19c-2.3,3.36-4.51,6.77-5.76,10.63c-2.89,8.92-4.39,17.98-3.09,27.33
		h0.79c-1.09-10.67,0.2-21.03,4.7-30.94c0.67-1.48,1.66-2.83,2.52-4.24c0.12-0.2,0.32-0.36,0.72-0.78
		c0.09,3.81-0.32,7.28-0.94,10.74c-0.54,3-1.12,5.99-1.23,9.05c-0.03,0.93,0.29,1.2,1.03,1.47c12.14,4.27,24.27,8.54,36.4,12.82
		c1.51,0.53,3.14,0.85,4.42,1.88h14.68c-1.86-1.35-4.2-1.67-6.29-2.5c-1.06-0.42-1.34-0.67-0.59-1.67c1.59-2.11,1.24-3.19-1.24-4.4
		c-2.17-1.06-4.4-1.98-6.8-2.51c-1.92-0.42-2.96,0.45-2.77,2.35c0.22,2.26,0.23,2.24-2.03,1.42c-2.15-0.78-4.31-1.54-6.48-2.26
		c-1.15-0.38-1.9-0.53-0.69-1.91c3.67-4.2,3.46-11.74-0.21-15.25c-3.35-3.2-8.23-2.89-11.2,0.71c-2.3,2.79-3.23,5.98-2.96,9.47
		c0.1,1.3-0.07,1.68-1.51,1.09c-2.11-0.86-4.31-1.56-6.48-2.28c-1.11-0.37-1.55-0.78-1.06-2.03c4.15-10.5,10.19-19.77,19.98-26.39
		c13.41-9.07,30.4-8.67,42.45,3.02c9.5,9.21,13.28,20.57,14.18,33.04c0.24,3.36,0.38,6.73-0.11,10.09h8.33
		c-0.08-0.66,0.27-1.21,0.51-1.79c4.49-11.05,9.57-21.87,13.76-33.03c4.95-13.2,9.35-26.55,12.56-40.22
		c1.46-6.22,2.38-12.48,1.38-18.9c-1.03-6.64-6.57-11.18-14.04-6.57c-5.39,3.33-8.49,8.46-11.42,13.63
		c-2.32,4.09-3.53,8.62-5.11,13.01c0.72-5.53,1.94-10.94,3.77-16.23c-0.62,0.75-0.94,1.64-1.24,2.53
		c-3.68,10.83-4.58,21.87-2.88,33.11c0.19,1.26,0.19,1.26-0.17,2.51c-0.89-1.52-0.84-3.04-1.04-4.44
		c-1.71-11.83-0.67-23.41,3.64-34.68c1.19-3.12,2.15-6.29,2.14-9.64c-0.58,3.65-1.55,7.2-2.95,10.64
		c-3.26,8.07-4.29,16.49-4.04,25.01c0.16,5.29-0.89,10.41-1.41,15.6c-0.52,5.19-1.47,10.35-2.23,15.52
		c-0.06,0.41,0.11,1.01-0.49,1.08c-0.56,0.07-0.65-0.54-0.84-0.92c-2.3-4.6-5.32-8.75-8.91-12.52c-1.99-2.09-4.34-3.82-6.77-5.44
		c-1.92-1.28-2.86-3.39-2.27-5.59c0.95-3.57,2.35-7.01,3.17-10.62c0.55-2.42,0.78-4.85,0.47-7.25c-0.88-6.81-0.72-13.55,1.01-20.69
		c-1.42,3.57-2.44,11.78-1.73,15.91c1.13,6.6-0.03,12.9-2.31,19.1c-0.56,1.51-1.01,3.05-1.66,4.55c-0.42-1.73,0.36-3.32,0.64-4.96
		c0.21-1.23,0.6-2.43,1.01-3.61c1.2-3.5,1.56-7.07,1.12-10.72c-1.04-8.57-0.05-16.93,2.75-25.13c0.52-1.53,0.71-3.17,1.05-4.76
		c-2.95,8.89-5.82,17.84-4.35,27.29c1.04,6.67-0.95,12.84-2.53,19.12c-1.1,4.34-1.08,4.22-5.75,2.98
		c-8.68-2.31-17.15-1.83-25.3,2.06c-1.17,0.56-2.4,1-3.62,1.5c-0.42-0.53-0.06-0.95,0.11-1.38c2.89-6.95,6.25-13.76,8.47-20.89
		c1.05-3.38,3.23-5.68,5.06-8.38c6.82-10.11,13.71-20.18,17.75-31.68c0.91-2.59,0.87-5.43,2.23-7.91c0.25-0.46,0.17-1.26,0.97-1.22
		c0.59,0.03,0.71,0.67,0.98,1.09c2.37,3.72,3.69,7.99,6.82,11.31c0.41,0.43,0.58,1.06,0.37,1.61c-0.57,1.48-0.87,3.04-1.26,4.56
		c0.71-1.02,0.86-2.2,1.19-3.33c0.09-0.33,0.21-0.82,0.71-0.73c0.23,0.04,0.44,0.42,0.56,0.69c1.58,3.43,3.55,6.66,5.53,9.88
		c1.49,2.43,3.3,2.83,5.93,1.43c3.75-1.99,6.84-4.86,10.57-6.87c0.39-0.21,0.72-0.67,1.2-0.47c0.59,0.24,0.48,0.85,0.44,1.32
		c-0.29,3.16-0.21,6.34-0.81,9.47c0.82-3.17,0.96-6.43,1.07-9.66c0.05-1.39,0.39-2.28,1.73-3.03c3.64-2.03,7.29-4.07,10.73-6.39
		c7.04-4.75,13.98-9.65,20.9-14.56c1.92-1.36,3.81-2.8,5.61-4.99c-0.61,0.27-0.79,0.31-0.91,0.41c-9.97,7.82-20.37,15.1-31.35,21.63
		c-6.44,3.83-12.56,8.09-18.84,12.13c-2.34,1.51-4.65,0.91-6.01-1.48c-4.1-7.19-8.09-14.45-12.61-21.41
		c-3.8-5.83-4.3-11.95-2.37-18.34c0.66-2.19,2.29-3.9,4.19-5.39c-1.13,3.2-2.81,6.25-1.68,9.72c0.18-2.63,0.21-5.28,1.93-7.83
		c0.29,1.26,0.07,2.23,0.03,3.21c-0.1,2.45-1.28,4.96,0.06,7.36c1.68,3.01,2.48,6.31,3.78,9.44c2.4,5.76,5.04,11.45,10.9,15.18
		c1.48,0.94,3.37,0.8,4.72-0.32c3.2-2.66,6.47-5.23,9.6-7.97c4.42-3.86,9.83-6.53,14.36-10.29c5.5-4.56,11.53-8.56,16.6-13.58
		c1.28-1.26,2.42-2.64,3.68-3.93c0.37-0.38,0.68-1.11,1.38-0.85c0.57,0.21,0.31,0.88,0.36,1.35c0.13,1.11,0.24,2.22,0.36,3.32
		c-0.19-2.46-0.07-4.89,0.09-6.66c-0.34,0.96-2.12,1.5-3.02,2.63c-3.29,4.11-7.52,7.27-11.61,10.6c-6.31,5.14-12.9,9.93-19.57,14.64
		c-3.75,2.64-7.12,5.75-10.75,8.55c-3.65,2.82-5.95,2.61-9.14-0.43c-0.19-0.19-0.5-0.52-0.67-0.73
		c-5.54-6.83-7.87-14.99-10.85-22.88c-0.1-0.26-0.12-0.53-0.08-0.8c1.48-8.91,0.55-17.82-0.01-26.72c-0.08-1.2,0.3-1.35,1.24-1.02
		c1.03,0.36,2.03,0.32,3.11,0.23c6.44-0.54,12.52-2.4,18.62-4.31c16.96-5.32,31.66-13.96,44-26.18c0.21-0.2,0.4-0.51,0.9-0.24
		c-0.31,1.92-0.7,3.88-0.94,5.85c-0.38,3.1-0.79,6.2-0.93,9.31c-0.15,3.12,0.04,6.25,0.02,9.37c-0.02,3.2,1.78,5.8,3.04,8.66
		c0.96-1.17,0.96-2.62,1.64-3.85c2.7-4.9,6.05-9.38,9.76-13.62c3.67-4.19,7.87-7.95,11.18-12.41c0.09-0.12,0.1-0.3,0.15-0.48
		c-0.6-0.05-0.79,0.71-1.49,0.53c0.93-2.07,1.9-4.02,2.59-6.58c-1.71,1.06-3.05,1.56-4.63,1.29c-0.58-0.1-1.07,0.47-1.4,0.94
		c-0.62,0.88-1.3,1.75-1.76,2.71c-1.73,3.54-2.66,7.45-5.43,10.51c-0.19,0.21-0.35,0.7-0.23,0.85c0.99,1.23-0.13,1.93-0.71,2.75
		c-1.14,1.61-2.32,3.19-3.5,4.78c-0.39,0.52-0.52,1.31-1.83,1.37c1.09-1.75,2.08-3.31,3.02-4.89c0.4-0.68,1.21-1.45,0.43-2.19
		c-0.78-0.74-1.84-0.97-2.84-0.11c-1.14,0.97-1.45-0.39-1.75-1.82c-0.1-0.49-0.11-1,0.01-1.48c0.42-1.61,1.51-2.26,1.19-3.64
		c-1.49-6.37,1.59-12.09,7.95-14.12c3.54-1.13,6.93-2.4,9.98-4.46c0.34-0.23,0.75-0.7,1.21-0.28c0.39,0.36,0.08,0.84-0.09,1.23
		c-0.4,0.92-0.95,1.79-1.29,2.73c-0.48,1.3,0.61,1.96,1.5,2.56c0.7,0.46,1.04-0.2,1.31-0.71c2.62-4.97,5.3-9.91,7.8-14.94
		c0.89-1.79,1.96-3.86,1.75-5.68c-0.18-1.58-0.16-2.8,0.75-4C249.07,123.31,249.48,118.88,248.09,113.96z"/>
	<path class="st2" d="M163.57,304.8c-0.92-0.31-1.21-0.02-1.32,0.92c-0.59,4.84-1.29,9.66-1.93,14.49c-0.3,2.26-0.95,4.46-0.25,6.83
		c2.03,6.84,2.79,13.83,2.32,20.93c-0.04,0.68-0.01,1.37-0.01,2.05c11.68-25.26,22-50.88,28.21-78.36
		c-2.69,1.49-4.81,2.72-6.99,3.86c-4.44,2.31-8.97,4.47-13.35,6.87c-1.62,0.88-4.08,1.42-4.53,3.06c-0.97,3.51-2.09,7.08-1.59,10.84
		c0.32,2.41,1.46,4.69,1.23,7.18c-0.1,1.12-0.26,2.12-1.86,1.28c0.79,0.1,1.29-0.13,1.3-0.97c0.01-1.43-0.01-2.86-1.02-4.07
		C161.77,300.99,161.72,302.43,163.57,304.8z"/>
	<path class="st2" d="M105.46,280.43c-7.23,8.16-14.92,15.33-21.47,23.51c-4.18,5.22-3.63,10.39-3.13,16.25
		c0.88-1.11,1.79-1.92,2.25-2.9c2.07-4.5,5.54-7.97,8.95-11.53c1.45-1.52,3.58-2.46,4.46-4.43
		C99.55,294.57,102.88,287.93,105.46,280.43z"/>
	<path class="st2" d="M74.56,160.67c1.07-2.56,1.48-5.32,2.9-7.72c2.36-3.98,3.99-8.14,4.06-12.77c0.02-1.24,0.14-2.5,0.34-3.73
		c0.86-5.38,1.37-10.87,5.08-15.7c-3.14,0.97-5.45,2.77-7.08,5.82C74.1,137.35,71.82,148.66,74.56,160.67z"/>
	<path class="st2" d="M221.02,102.69c0.63,2,1.22,3.5,1.56,5.05c0.29,1.32,1.12,2.08,2.31,2.57c2.78,1.15,7.9-0.66,9.49-3.28
		c0.34-0.55-0.09-0.64-0.42-0.77c-0.82-0.34-0.96,0.35-1.3,0.78c-2.1,2.59-3.49,2.7-6.22,0.63
		C224.61,106.27,223.03,104.62,221.02,102.69z"/>
	<path class="st2" d="M208.34,175.51c0.69,1.88,1.38,4.2,2.42,6.37c0.68,1.42,2.01,0.26,2.97,0.08c1.02-0.19,0.98-1.06,0.6-1.81
		c-1.07-2.08-2.44-3.98-4.07-5.7c-0.4-0.42-0.75-1.26-1.5-0.94C208.16,173.75,208.56,174.52,208.34,175.51z"/>
	<path class="st2" d="M104.07,329.91c-0.14-1.33-0.37-2.67-1.99-2.64c-1.62,0.03-2.12,1.36-2.2,2.66c-0.08,1.26,0.34,2.58,1.92,2.56
		C103.39,332.46,103.79,331.09,104.07,329.91z"/>
	<path class="st2" d="M135.26,298.03c0.06,1.01-0.22,2.36,1.22,2.39c1.25,0.03,1.14-1.29,1.32-2.18c0.04-0.18,0.06-0.37,0.09-0.55
		c0.11-0.62,0.27-1.29-0.37-1.72c-0.58-0.39-0.93,0.38-1.56,0.42C135.06,296.42,135.42,297.45,135.26,298.03z"/>
	<path class="st2" d="M175.91,51.98c-0.49-0.99-1.32-1.41-2.24-1.68c-0.38-0.11-0.83,0.06-0.93,0.48c-0.09,0.38,0.35,0.5,0.63,0.57
		C174.17,51.54,174.87,52.09,175.91,51.98z"/>
	<path class="st2" d="M158.14,49.17c1.62,0.17,3.25,0.34,4.87,0.51C161.45,49.06,159.88,48.48,158.14,49.17z"/>
	<path class="st2" d="M209.94,73.28c-0.46-1.45-1.39-2.61-2.45-3.7C208.26,70.84,208.64,72.34,209.94,73.28z"/>
	<path class="st2" d="M296.78,333.69c-0.54-5.78-0.87-11.62-2.41-17.23c-1.74-6.33-2.22-12.79-2.96-19.22
		c-0.88-7.58-2.2-15.08-4.45-22.39c-2.16-7.01-3.59-14.19-5.86-21.19c-2.28-6.99-5.08-13.7-9.86-19.46
		c-3.93-4.73-9.51-6.89-15.74-7.73c-5.09-0.69-10.39,0.04-15.19-2.69c-3.41-1.94-6.59-4.1-9.61-6.5c-0.58-0.46-1.12-1.07-1-1.94
		c0.72-5.5,1.9-10.85,5.84-15.25c0.33-0.37,0.46-1.04,1.07-0.99c0.76,0.05,0.73,0.82,0.88,1.31c1.2,3.75,3.13,7.16,5.52,10.32
		c1.7,2.25,3.61,4.36,6.13,6.17c-0.1-0.92-0.69-1.28-1.07-1.75c-1.38-1.68-2.89-3.27-4.14-5.02c-2.81-3.91-5.77-7.8-4.89-12.99
		c0.09-0.54-0.05-1.33-0.79-1.59c-0.7-0.24-1.04,0.34-1.44,0.75c-0.57,0.57-1.03,1.27-2.27,1.69c2.78-4.69,6.59-8.18,10.15-12.39
		c0.15,1.6,0.45,2.39,1.63,1.04c0.64-0.73,1.65-0.98,2.54-0.68c1.05,0.35,0.64,1.4,0.66,2.15c0.22,9.79,2.86,18.87,8.72,27.02
		c0.65,0.9,1.33,1.78,1.99,2.66c-0.29-1.21-0.91-2.21-1.55-3.19c-6.22-9.41-8.97-19.66-8.2-30.72c0.21-3,1.19-5.87,2.81-8.46
		c2.71-4.34,4.99-8.77,5.66-13.87c0.21-1.63-0.38-2.85-1.16-4c-0.03,0.12-0.05,0.24-0.08,0.35c-1,4.31-2.41,8.7-4.52,12.59
		c-0.32,0.6-0.71,1.22-1.14,1.83c0.04,0.22-0.01,0.45-0.17,0.71c-0.82,1.35-1.52,2.78-2.42,4.08c-5.41,7.82-11.55,15.08-18.43,21.83
		c-2.82,2.77-4.6,6.52-4.75,10.31c-0.21,5,0.09,10.11,2.94,14.7c1.66,2.69,3.56,4.16,6.96,4.73c-7.72-3.3-8.97-9.49-8.18-13.33
		c5.41,6.15,12,10.5,20.65,11.23c2.8,0.24,5.65,0.46,8.38,0.87c5.58,0.84,10.58,3.19,14.08,7.66c4.33,5.54,6.99,11.82,9.1,18.38
		c2.12,6.58,3.5,13.32,5.38,19.95c2.06,7.25,3.62,14.57,4.56,22.02c0.72,5.7,1.15,11.43,2.6,17.04c1.28,4.97,2.24,10.02,2.69,15.13
		c0.53,5.98,1.21,11.92,2.97,17.72c0.56,1.85,1.44,3.62,1.61,5.58h1.19C299.28,345.28,297.33,339.64,296.78,333.69z"/>
	<path class="st2" d="M148.26,353.25c-6.99-1.64-7.39-1.74-14.38-3.38c-0.65-3.75-0.1-7.28,2.62-10.41
		c1.86-2.15,4.11-3.56,7.17-3.19c3.18,0.38,5.01,2.45,6.12,5.03C151.47,345.26,150.9,349.34,148.26,353.25z M144.25,344.12
		c0.2,1.14,0.44,2.29,1.94,2.43c1.2,0.11,2.44-1.36,2.31-2.75c-0.11-1.18-0.56-2.35-2.03-2.31
		C144.87,341.55,144.4,342.79,144.25,344.12z"/>
	<path class="st2" d="M184.09,350.94c0.3-6.54,1.42-14.58,4.56-23.32c1.17-3.26,1.46-3.38,2.54-6.6c1.17-3.49,4.12-12.58,4.04-23.97
		c-0.03-5.05,0.89-9.26,0.95-16.27c0.01-1.03,0.09-2.09,0.83-3.05c0.38,1.97,0.65,3.96,0.87,5.9c0.49,4.43,0.36,6.68-0.06,8.42
		c-0.13,0.53-0.48,1.87,0.07,3.25c0.16,0.41,0.53,1.34,1.4,1.6c1.17,0.34,2.42-0.77,2.38-0.87c-0.01-0.03-0.18,0.03-0.21-0.03
		c-0.07-0.13,0.69-0.66,0.74-0.7c1.81-1.29,6.18-15.5,6.54-18.38c0.26-2.04,0.69-4.04,1.98-5.84c-0.6,3.17-0.85,6.46-1.88,9.5
		c-2.61,7.71-4.82,15.59-9.76,22.43c-3.86,5.33-4.26,9.28-6.04,14.18c-1.09,2.98-2.64,7.58-4.1,13.29
		c-1.39,5.43-2.81,12.33-3.67,20.46C184.89,350.94,184.49,350.94,184.09,350.94z"/>
	<path class="st3" d="M126.41,111.1c0.45,0.11,0.97,0.25,1.29-0.15c0.31-0.38-0.03-0.71-0.35-0.93c-2.42-1.67-3.14-3.89-2.49-6.59
		c0.09-0.38,0.04-0.76-0.37-0.98c-0.47-0.26-0.91-0.09-1.27,0.21c-0.99,0.83-1.08,1.95-1.08,3.09
		C122.17,107.75,124.47,110.64,126.41,111.1z"/>
	<path class="st3" d="M127.42,105.44c0.91-0.06,1.57-0.57,1.4-1.46c-0.16-0.83-0.54-1.7-1.69-1.8c-1,0.25-1.74,0.75-1.64,1.8
		C125.58,105.03,126.35,105.5,127.42,105.44z"/>
	<path class="st1" d="M198.68,120.45c0.46,0.95,1.42,1.26,1.69,2.26c-1.79-0.04-2.69-1.72-4.47-1.98c0.31,1.12,1.55,1.51,1.77,2.74
		c-1.02-0.17-1.35-1.14-2.09-1.32c-0.53-0.12-1.29-1.71-1.79,0.08c-0.1,0.36-0.47,0.1-0.57-0.08c-0.79-1.35-2.11-0.98-3.34-0.96
		c-2.85,0.03-5.68-0.18-8.49-0.59c-1.12-0.16-1.75-0.41-2.23-1.79c-0.52-1.5-1.25-2.9-1.37-4.55c-0.1-1.45-0.22-2.87,0.29-4.25
		c0.42-1.13-0.27-1.15-1.09-1.04c-1.67,0.23-3.15,0.95-4.48,1.88c-1.88,1.31-4.15,1.31-6.29,1.85c4.54-4.09,8.91-8.4,15.74-8.74
		c3-0.15,5.92,0.44,8.8,1.13c5.44,1.3,10.65,3.36,16.15,4.47c0.89,0.18,1.12,0.74,1.13,1.51c0.01,0.8-0.26,1.47-1.18,1.39
		c-3.28-0.26-5.05,1.07-5.43,4.19c-0.14,1.14-2.3,1.55-1.41,3.2C200.1,119.94,199.36,120.48,198.68,120.45z M193.04,119.79
		c4.59-0.31,6.28-1.15,7.69-3.76c1.41-2.6,0.92-3.53-2.02-4.2c-0.94-0.21-1.15-0.02-1.11,0.84c0.1,2.36-1.16,4.14-2.92,5.65
		C194.15,118.76,193.35,118.91,193.04,119.79z M182.17,118.38c0.39-0.32,2.06-0.08,1.18-1.09c-1.41-1.62-1.66-3.31-1.61-5.21
		c0.01-0.51-0.08-1.06-0.66-1.25c-0.69-0.22-1.1,0.28-1.46,0.72c-1.12,1.35-1.02,4.53,0.17,5.82
		C180.37,118.02,181.1,118.41,182.17,118.38z M195.45,113.58c-0.06-0.5-0.28-1.27-1.18-1.44c-1.12-0.21-1.25,0.69-1.39,1.41
		c-0.26,1.27-0.9,2.32-1.87,3.2c-0.36,0.33-0.98,0.6-0.58,1.2c0.37,0.56,1.02,0.52,1.6,0.37
		C193.58,117.93,195.5,115.41,195.45,113.58z M190.12,113.36c0.82-0.11,1.54-0.51,1.52-1.48c-0.02-0.83-0.59-1.4-1.48-1.43
		c-1.07-0.03-1.73,0.56-1.73,1.58C188.43,112.94,189.16,113.24,190.12,113.36z M191.61,114.87c-0.06-0.52-0.38-0.85-0.88-0.81
		c-0.69,0.05-0.99,0.52-0.97,1.15c0.01,0.41,0.2,0.73,0.7,0.7C191.13,115.88,191.45,115.44,191.61,114.87z"/>
	<path class="st2" d="M254.16,43.75c0.14,0.07,0.3,0.09,0.34,0.17c5.37,9.38,11.14,18.63,12.34,29.56
		c0.76,6.97,1.09,13.98,0.65,20.96c-1.04,16.38-2.23,32.76-4.41,49.05c-2.68,19.99,2.29,38.69,11.33,56.59
		c3.07,6.08,6.77,11.86,8.75,18.41c1.28,4.24,1.9,8.57,2.02,12.93c0.25,9.14,2.88,17.58,7.78,25.42c0.1,0.16,0.19,0.33,0.25,0.51
		c0.03,0.1-0.03,0.22-0.08,0.49c-1.01-0.78-1.57-1.77-2.07-2.74c-3.84-7.36-6.38-15.02-6.51-23.33c-0.14-8.77-2.48-17.06-7.03-24.7
		c-7.68-12.87-12.67-26.6-15.09-41.18c-1.29-7.78-1.16-15.54,0.1-23.32c1.56-9.63,2.24-19.35,3.09-29.06
		c0.89-10.15,1.72-20.28,1.47-30.48c-0.2-8.19-1.29-16.22-4.76-23.76c-2.24-4.85-5.07-9.46-7.62-14.19
		C254.45,44.68,253.97,44.33,254.16,43.75z"/>
	<path class="st2" d="M166.6,93.7c3.72-2.27,7.38-4.53,11.6-4.9c4.02-0.35,7.98,0.91,11.76,2.2c4.35,1.48,8.41,3.6,12.45,5.73
		c1.2,0.63,1.84,1.69,2.58,3.26C192.55,94.66,179.75,93.41,166.6,93.7z"/>
	<path class="st2" d="M93.15,237.6c-0.25,0.47-0.61,0.94-1.18,0.74c-0.48-0.17-0.31-0.77-0.34-1.18c-0.25-4.32,1.3-8.22,3.13-12.06
		c2.15-4.53,5.75-8.02,9.19-11.66c7.28-7.69,10.67-16.93,11.84-27.04c1.02-8.85-1.17-17.39-2.62-26c-0.48-2.84-1.92-5.43-3.35-7.98
		c-0.63-1.13-1.21-2.29-1.63-3.52c2.55,2.59,4.29,5.64,5.28,8.99c2.33,7.9,4.08,15.95,3.62,24.19
		c-0.72,12.69-4.74,24.31-14.14,33.75c-5.67,5.7-9.04,12.38-10.76,19.9c-0.14,0.62-1.26,2.21,1,1.91L93.15,237.6z"/>
	<path class="st2" d="M228.75,116.63c0.49,0.85,0.22,1.8,0.43,2.8c1.34-4.69,5.03-7.24,9.08-9.52c2.32-1.31,5.35-0.27,5.73,2.27
		c0.77,5.04,0.7,9.91-2.01,14.71c-3.18,5.62-8.61,8.28-14.08,11.4c-0.11-1.14,0.68-1.27,1.17-1.57c1.49-0.93,2.99-1.86,4.55-2.65
		c5.2-2.65,7.93-7.13,9.58-12.14c1.05-3.21,0.63-6.69,0-10.01c-0.29-1.57-2.83-2.35-4.25-1.51c-1.12,0.66-2.73,1.19-3.12,2.14
		c-0.37,0.92,1.28,1.82,1.95,2.79c1.21,1.77,1.71,3.56,1.13,5.68c-0.58,2.13-1.37,4.17-2.3,6.17c-1.25,2.68-3.29,4.51-6.35,5.17
		c-1.91,0.41-3.28,1.81-5.18,2.29c-1.23,0.31,0.29,1.45-0.46,2.23c-1.28-1.56-1.37-3.39-0.62-4.89c1.19-2.41,1.64-4.82,1.5-7.42
		c-0.03-0.52,0.25-1.06,0.46-1.85c0.61,3.78,0.38,5.56-1.01,8.78c-0.29,0.68-0.82,1.54-0.14,2.09c0.71,0.58,1.48-0.13,2.13-0.51
		c0.9-0.52,1.77-1.1,2.82-1.33c3.16-0.69,5.21-2.56,6.34-5.39c0.54-1.34,1.02-2.71,1.61-4.02c1.49-3.3,0.21-5.91-2.12-8.35
		c-0.75-0.78-1.27-0.87-2.07-0.09c-1.88,1.86-3.05,4.05-3.72,6.52c-0.12,0.44,0.01,1.19-0.71,1.13c-0.61-0.05-0.56-0.76-0.68-1.23
		c-0.32-1.26-0.02-2.48,0.33-3.7C228.77,116.6,228.75,116.63,228.75,116.63z"/>
	<path class="st1" d="M160.49,160.84c-5.48,2.13-10.72,0.06-15.75-1.02c0.27-0.02,0.84-0.06,1.88-0.14
		c-1.78-1.43-3.42-1.85-5.3-1.61c-0.36,0.05-0.69,0.2-0.32,0.6c0.55,0.61,0.04,0.59-0.37,0.53c-3.11-0.44-6.39-0.3-9.02-2.35
		c-0.43-0.34-1.24-0.61-0.78-1.28c0.49-0.71,1.1-1.42,2.05-1.66c0.1-0.03,0.4,0.2,0.39,0.31c-0.02,2.47,2.12,2.04,3.63,2.38
		c0.63,0.14,1.32,0.08,1.98,0.04c3.51-0.24,6.69,0.3,9.8,2.15c2.36,1.41,5.27,1.94,8.18,1.85
		C158.1,160.61,159.36,160.42,160.49,160.84z"/>
	<path class="st2" d="M94.73,171.73c1.47,1.03,1.43,2.65,1.46,4.05c0.27,11.87-2.54,23.05-8.97,33.28
		c-2.66,4.23-5.7,8.26-8.79,12.23c-4.93,6.33-6.1,13.25-4.22,20.77c0.1,0.42,0.34,0.82-0.02,1.6c-1.34-3.42-1.82-6.68-1.47-10.03
		c0.45-4.43,2.02-8.48,4.78-12.13c2.68-3.56,5.26-7.19,7.87-10.79c5.18-7.15,7.85-15.2,9.44-23.62c0.7-3.69,1.01-7.42,0.77-11.18
		c-0.09-1.45-0.43-2.83-0.8-4.22L94.73,171.73z"/>
	<path class="st2" d="M173.16,88.36c-3.5,1.18-6.46,3.26-9.66,4.92c-1.08,0.56-3.19-0.27-3.51-1.3c-0.47-1.53,0.69-2.02,1.88-2.3
		C165.55,88.79,169.2,87.68,173.16,88.36z"/>
	<path class="st2" d="M93.2,237.64c3.15-2.83,6.74-5.19,9.86-8.07c4.9-4.52,9.29-9.35,12.42-15.18c1.4-2.59,1.4-5.42,2.18-8.11
		c0.47-1.64,1.46-2.96,2.67-4.15l-0.04-0.04c-1.36,2.92-2.12,5.99-2.87,9.1c-0.98,4.01-3.24,7.5-5.88,10.72
		c-4.94,6-10.8,11.09-17.49,15.33c-0.27,0.17-0.6,0.24-0.9,0.36C93.15,237.6,93.2,237.64,93.2,237.64z"/>
	<path class="st1" d="M147.06,168.93c-6.54,1.99-14.14-0.35-13.77-6.67C136.05,167.93,141.43,168.61,147.06,168.93z"/>
	<path class="st2" d="M94.77,171.69c-0.53-0.61-1.06-1.23-1.94-2.25c0.18,5.66-2.22,10.11-4.82,14.49c1.04-2.86,2.98-5.42,3.32-8.52
		c0.33-2.96,1.65-5.96-0.15-8.94c1.58,1.51,2.93,3.15,3.56,5.26C94.73,171.73,94.77,171.69,94.77,171.69z"/>
	<path class="st2" d="M120.33,202.14c-0.22-1.68,0.9-2.95,1.55-4.34c1.47-3.13,2.97-6.25,4.15-9.49c0.2-0.56,0.31-1.22,1.07-1.64
		c-0.52,5.92-4.4,10.38-6.81,15.43C120.29,202.1,120.33,202.14,120.33,202.14z"/>
	<path class="st2" d="M96.25,113.19c0.22-0.48,0.25-0.77,0.42-0.9c2.91-2.25,5.72-4.61,8.42-7.08c0.32-0.3,0.8-0.62,1.21-0.22
		c0.37,0.36-0.07,0.68-0.33,0.92c-2.8,2.56-5.72,4.99-8.85,7.18C96.99,113.18,96.77,113.14,96.25,113.19z"/>
	<path class="st1" d="M150.52,141.31c-1.77,0.13-3.44,0-5.14,0.2c-1,0.12-1.82-0.66-1.7-1.63c0.14-1.11,1.21-1.04,2.02-0.76
		C147.37,139.7,149.2,139.97,150.52,141.31z"/>
	<path class="st1" d="M143.51,143.36c-0.31,0.04-0.66,0.18-0.93,0.1c-3-0.83-5.62-2.3-7.72-4.49c-0.43-0.45-0.74-1.18-0.01-1.63
		c0.55-0.34,1.01,0.13,1.27,0.57C137.79,140.66,140.25,142.39,143.51,143.36z"/>
	<path class="st2" d="M80.81,148.42c0.5,0.15,0.73,0.49,0.8,0.97c0.63,4.29,2.45,8.12,5.26,11.76c-1.11-0.68-1.28-0.81-1.82-1.65
		c-1.95-3.06-3.67-6.2-3.69-9.92c0-0.4-0.32-0.79-0.5-1.19C80.86,148.39,80.81,148.42,80.81,148.42z"/>
	<path class="st2" d="M232.43,119.08c1.67,0.24,2.8,0.9,2.32,2.88C233.98,120.9,233.44,119.81,232.43,119.08z"/>
	<path class="st1" d="M112.46,105.31c-3.77-1.18-3.77-1.18-3.77-1.18"/>
	<path class="st3" d="M126.41,111.1c0.45,0.11,0.97,0.25,1.29-0.15c0.31-0.38-0.03-0.71-0.35-0.93c-2.42-1.67-3.14-3.89-2.49-6.59
		c0.09-0.38,0.04-0.76-0.37-0.98c-0.47-0.26-0.91-0.09-1.27,0.21c-0.99,0.83-1.08,1.95-1.08,3.09
		C122.17,107.75,124.47,110.64,126.41,111.1z"/>
	<path class="st3" d="M127.42,105.44c0.91-0.06,1.57-0.57,1.4-1.46c-0.16-0.83-0.54-1.7-1.69-1.8c-1,0.25-1.74,0.75-1.64,1.8
		C125.58,105.03,126.35,105.5,127.42,105.44z"/>
	<path class="st2" d="M107.81,114.79c0.06,1.32-0.07,2.57-0.91,3.75c-0.6,0.83-0.95,2.08-0.39,2.87c1.33,1.86,0.69,3.85,0.88,5.79
		c0.07,0.66-0.37,1.54,0.9,1.98c0.19-4.57,0.21-9.05,0.6-13.51c0.36-4.12,2.16-10.1,2.7-10l-3.83-1.08
		C107.93,104.64,107.66,111.73,107.81,114.79z"/>
	<path class="st3" d="M127.42,105.44c0.91-0.06,1.57-0.57,1.4-1.46c-0.16-0.83-0.54-1.7-1.69-1.8c-1,0.25-1.74,0.75-1.64,1.8
		C125.58,105.03,126.35,105.5,127.42,105.44z"/>
	<path class="st3" d="M126.41,111.1c0.45,0.11,0.97,0.25,1.29-0.15c0.31-0.38-0.03-0.71-0.35-0.93c-2.42-1.67-3.14-3.89-2.49-6.59
		c0.09-0.38,0.04-0.76-0.37-0.98c-0.47-0.26-0.91-0.09-1.27,0.21c-0.99,0.83-1.08,1.95-1.08,3.09
		C122.17,107.75,124.47,110.64,126.41,111.1z"/>
	<path class="st3" d="M114.21,96.4H114c-0.01,0.02-0.02,0.04-0.03,0.06C114.05,96.44,114.13,96.43,114.21,96.4z"/>
	<path class="st1" d="M111.62,96.85c-0.78,1.13-1.8,2.14-3.51,2.05c-0.79-0.04-0.99,0.54-0.46,0.94c1.21,0.91,0.46,1.61-0.09,2.38
		c-0.53,0.74-1.97,1.55,0.2,2.12l3.83,1.08c0.05,0.01,0.08,0.04,0.11,0.14c0.25,0.94-0.45,2.11-0.72,3.15
		c0.89,0.26,1.4-0.68,2.17-0.32c-0.06,0.82-1.31,1.14-0.85,2.4c1.65-2.75,2.77-0.93,4,0.19c1.71,1.57,3.83,2.29,6.14,2.6
		c-0.84-0.47-1.73-0.85-2.66-1.15c-2.76-0.9-4.48-2.78-5.61-5.23c-1.51-3.28,0.89-6.5,4.56-6.17c1.18,0.11,1.65,0.5,1.42,1.65
		c-0.36,1.74-0.09,3.49,0.2,5.22c0.46,2.69,3.24,5.25,5.93,5.19c1.66-0.04,3.28,0.1,4.93,0.18c2.99,0.15,3.5-0.39,3.29-3.23
		c-0.44-6.11-5.16-11.61-11.39-13.57c-3.21-1.01-6.32-0.74-9.65,0.18h0.07h-0.07c-0.08,0.02-0.16,0.04-0.24,0.06
		c0.01-0.02,0.02-0.04,0.03-0.06h-1.48C111.71,96.72,111.66,96.78,111.62,96.85z M126.36,102.44c1.15,0.1,1.53,0.96,1.69,1.8
		c0.17,0.88-0.49,1.4-1.4,1.46c-1.06,0.07-1.84-0.41-1.93-1.45C124.62,103.19,125.36,102.69,126.36,102.44z M122.46,102.91
		c0.36-0.3,0.8-0.47,1.27-0.21c0.41,0.22,0.46,0.61,0.37,0.98c-0.65,2.7,0.07,4.93,2.49,6.59c0.33,0.22,0.66,0.55,0.35,0.93
		c-0.32,0.4-0.85,0.26-1.29,0.15c-1.95-0.46-4.25-3.35-4.27-5.36C121.38,104.86,121.47,103.73,122.46,102.91z"/>
	<path class="st2" d="M138.58,92.72c-3.44-5.47-8.36-8.92-15.13-9.72c-1.05-0.12-2.26-0.15-2.76,1.23
		c-1.62,4.52-5.11,7.95-7.83,11.84h1.48c1.5-3.1,3.91-5.32,5.47-8.03c0.59-1.02,1.16-1.25,2.32-0.97c4.83,1.17,9.44,2.8,13.72,5.25
		c0.82,0.47,1.68,0.91,2.73,1.04C138.59,93.06,138.66,92.85,138.58,92.72z"/>
	<path class="st2" d="M207.85,299.7"/>
</g>
<g id="Layer_3" class="st0">
	<g class="st1">
		<path class="st4" d="M182.47,13.08c0.41,5.2,0.84,10.4,1.21,15.61c0.13,1.87,0.13,3.74,0.28,5.61c0.36,4.41,0.29,8.86,0.71,13.26
			c0.49,5.1,0.85,10.2,1.45,15.29c0.65,5.53,1.43,11.02,2.52,16.47c0.12,0.6,0.28,1.2,0.45,1.79c0.3,1.03,0.5,2.86,0.95,2.93
			c1.61,0.24,3.29,0.52,4.96,0.22c0.57-0.1,0.58-0.64,0.72-1.06c0.67-1.9,0.92-3.89,1.22-5.87c0.66-4.33,1.31-8.66,1.84-13.01
			c0.42-3.49,0.53-7.03,1-10.51c0.53-3.95,0.57-7.94,1.15-11.89c0.41-2.82,0.44-5.69,0.68-8.53c0.11-1.3,0.32-2.58,0.66-3.85
			c0.63,2.75,0.91,5.51,1.21,8.27c0.4,3.65,0.63,7.31,1.13,10.95c0.33,2.35,0.38,4.75,0.68,7.11c0.51,4.04,0.95,8.09,1.49,12.13
			c0.55,4.14,1.14,8.26,1.93,12.35c0.42,2.16,1.01,4.28,1.54,6.41c0.14,0.57,0.45,0.91,1.09,1.09c1.44,0.4,2.84,0.95,4.26,1.45
			c1.86-5.01,2.73-10.22,3.57-15.43c0.91-5.65,1.49-11.35,2.21-17.03c0.32-2.54,0.38-5.14,1.16-7.61c0.1-0.31,0.13-0.61,0.56-0.74
			c0.76,3.52,1.01,7.1,1.34,10.67c0.37,4.02,0.83,8.02,1.2,12.04c0.26,2.79,0.39,5.59,0.65,8.38c0.42,4.64,0.54,9.31,1.19,13.93
			c0.21,1.53-0.04,3.11,0.33,4.66c0.27,1.14-0.73,1.34-1.44,1.65c-4.13,1.8-8.07,3.95-11.74,6.61c-4.25,3.08-8.02,6.67-11.45,10.7
			c-4.28,5.02-7.78,10.53-10.58,16.51c-2.57,5.48-4.41,11.2-5.88,17.1c-1.38,5.51-2.17,11.09-2.96,16.68
			c-0.49,3.43-0.64,6.91-0.96,10.36c-0.07,0.77-0.21,1.53-0.31,2.29c-0.31,0-0.62,0-0.93,0c-0.48-4.12-0.61-8.28-1.17-12.4
			c-0.49-3.62-0.89-7.25-1.56-10.86c-0.64-3.44-1.44-6.82-2.39-10.17c-1.52-5.33-3.38-10.53-6-15.41
			c-2.93-5.47-6.29-10.63-10.42-15.29c-4.05-4.57-8.62-8.43-13.69-11.71c-2.6-1.68-5.29-3.2-8.22-4.2c-1.1-0.37-1.72-0.92-1.61-2.32
			c0.35-4.75,0.72-9.5,1.24-14.24c0.19-1.75,0.13-3.52,0.3-5.3c0.52-5.31,0.8-10.65,1.3-15.97c0.41-4.31,1.01-8.61,1.51-12.91
			c0.04-0.33,0.09-0.62,0.47-0.82c0.98,2.33,1.02,4.85,1.36,7.28c0.67,4.8,1.15,9.62,1.81,14.43c0.7,5.15,1.54,10.26,2.86,15.28
			c0.31,1.18,0.37,2.72,1.14,3.41c0.95,0.85,2.07-0.7,3.23-0.81c2.57-0.24,2.57-2.55,2.95-4.24c1-4.35,1.91-8.74,2.46-13.16
			c0.47-3.79,0.94-7.59,1.4-11.38c0.64-5.23,0.88-10.5,1.71-15.71c0.42-2.65,0.43-5.37,0.68-8.06c0.17-1.85,0.42-3.69,0.67-5.53
			c0.02-0.16,0.25-0.29,0.47-0.53c0.51,3.59,0.8,7.08,1.05,10.58c0.28,3.86,0.93,7.7,1.14,11.57c0.19,3.58,0.73,7.11,1.02,10.67
			c0.25,3.13,0.89,6.23,1.17,9.36c0.31,3.39,0.99,6.71,1.58,10.05c0.13,0.75,0.51,1.47,0.58,2.22c0.06,0.73,0.44,0.73,0.92,0.66
			c0.38-0.05,0.77-0.3,1.12-0.24c3.18,0.48,4.15-1.3,4.68-4.16c0.84-4.55,1.7-9.09,2.3-13.68c0.59-4.51,0.97-9.04,1.46-13.56
			c0.31-2.84,0.48-5.69,0.64-8.54c0.34-6.02,0.54-12.04,0.98-18.05c0.23-3.04,0.33-6.1,0.59-9.14c0.12-1.39,0.4-2.76,0.6-4.14
			C182.06,13.08,182.27,13.08,182.47,13.08z"/>
		<path class="st4" d="M342.74,152.62c-4.95,1.29-9.89,2.61-14.85,3.87c-1.78,0.45-3.58,0.77-5.36,1.24
			c-4.19,1.11-8.49,1.8-12.67,2.97c-4.83,1.36-9.7,2.59-14.5,4.06c-5.22,1.6-10.39,3.31-15.46,5.34c-0.56,0.22-1.11,0.48-1.65,0.75
			c-0.94,0.47-2.67,0.99-2.66,1.45c0.04,1.66,0.05,3.4,0.62,5.03c0.19,0.55,0.72,0.47,1.14,0.55c1.94,0.35,3.91,0.26,5.87,0.23
			c4.29-0.07,8.57-0.15,12.86-0.36c3.44-0.17,6.87-0.66,10.31-0.78c3.9-0.14,7.76-0.78,11.66-0.87c2.79-0.06,5.56-0.52,8.34-0.76
			c1.27-0.11,2.55-0.11,3.83,0.01c-2.55,1.1-5.16,1.86-7.77,2.63c-3.45,1.02-6.94,1.87-10.36,3c-2.21,0.73-4.51,1.19-6.75,1.89
			c-3.81,1.2-7.64,2.34-11.45,3.56c-3.9,1.26-7.78,2.55-11.59,4.04c-2.01,0.79-3.96,1.74-5.92,2.64c-0.52,0.24-0.8,0.61-0.86,1.28
			c-0.14,1.52-0.44,3.02-0.68,4.54c5.15,1.02,10.32,1.02,15.49,0.97c5.61-0.05,11.2-0.43,16.8-0.67c2.5-0.1,5.02-0.49,7.54-0.13
			c0.32,0.05,0.61,0.03,0.81,0.43c-3.27,1.36-6.68,2.22-10.06,3.16c-3.81,1.05-7.6,2.2-11.41,3.25c-2.65,0.73-5.32,1.35-7.97,2.07
			c-4.41,1.21-8.88,2.13-13.24,3.56c-1.44,0.48-3.01,0.49-4.44,1.12c-1.05,0.47-1.42-0.5-1.84-1.17c-2.44-3.85-5.18-7.45-8.37-10.69
			c-3.69-3.76-7.8-6.94-12.26-9.71c-5.57-3.45-11.47-6.04-17.72-7.85c-5.72-1.66-11.55-2.53-17.49-3.02
			c-5.54-0.45-11.06-0.3-16.59-0.15c-3.39,0.09-6.77,0.53-10.15,0.79c-0.75,0.06-1.51,0.05-2.26,0.08c-0.05-0.31-0.1-0.62-0.16-0.93
			c3.89-1.19,7.88-2.02,11.76-3.28c3.41-1.11,6.84-2.13,10.2-3.42c3.21-1.23,6.33-2.61,9.4-4.13c4.88-2.43,9.58-5.2,13.84-8.66
			c4.78-3.88,9.18-8.14,12.97-13.09c3.72-4.85,6.67-10.11,8.97-15.78c1.18-2.9,2.19-5.87,2.65-8.99c0.17-1.17,0.59-1.89,1.96-2.02
			c4.64-0.45,9.29-0.89,13.95-1.18c1.72-0.1,3.42-0.47,5.16-0.59c5.21-0.38,10.41-1.01,15.62-1.4c4.23-0.32,8.47-0.45,12.71-0.67
			c0.33-0.02,0.61-0.02,0.87,0.33c-2.08,1.38-4.5,1.85-6.79,2.61c-4.51,1.49-9.08,2.79-13.61,4.27c-4.85,1.58-9.63,3.29-14.25,5.47
			c-1.09,0.51-2.56,0.84-3.1,1.73c-0.66,1.1,1.03,1.97,1.33,3.11c0.67,2.54,2.9,2.15,4.59,2.26c4.36,0.27,8.75,0.44,13.11,0.24
			c3.74-0.17,7.48-0.34,11.22-0.52c5.15-0.25,10.27-0.9,15.44-0.94c2.63-0.02,5.26-0.48,7.89-0.68c1.81-0.14,3.63-0.2,5.45-0.27
			c0.16-0.01,0.33,0.2,0.59,0.38c-3.38,1.12-6.69,2.01-10.03,2.86c-3.68,0.94-7.27,2.25-10.96,3.11c-3.42,0.8-6.73,1.95-10.12,2.84
			c-2.98,0.79-5.86,1.95-8.83,2.77c-3.22,0.89-6.31,2.13-9.42,3.3c-0.7,0.26-1.33,0.76-2.04,0.96c-0.69,0.19-0.63,0.57-0.48,1.04
			c0.12,0.37,0.42,0.73,0.42,1.09c0.08,3.28,1.96,3.96,4.8,4c4.53,0.07,9.05,0.17,13.59-0.01c4.45-0.18,8.88-0.56,13.32-0.83
			c2.79-0.17,5.57-0.48,8.34-0.81c5.86-0.68,11.7-1.51,17.57-2.08c2.97-0.29,5.94-0.7,8.91-0.96c1.36-0.12,2.73-0.07,4.09-0.1
			C342.67,152.2,342.7,152.41,342.74,152.62z"/>
		<path class="st4" d="M187.55,346.92c-0.62-5.18-1.27-10.36-1.86-15.54c-0.21-1.86-0.29-3.73-0.51-5.6
			c-0.54-4.39-0.66-8.84-1.26-13.22c-0.7-5.07-1.27-10.16-2.08-15.22c-0.88-5.49-1.89-10.95-3.2-16.35
			c-0.15-0.6-0.33-1.19-0.52-1.77c-0.34-1.01-0.62-2.83-1.07-2.88c-1.62-0.17-3.31-0.38-4.96-0.01c-0.56,0.13-0.55,0.67-0.68,1.09
			c-0.59,1.92-0.76,3.93-0.98,5.91c-0.48,4.35-0.95,8.71-1.3,13.07c-0.28,3.51-0.24,7.04-0.56,10.55
			c-0.36,3.97-0.24,7.96-0.65,11.93c-0.29,2.83-0.2,5.7-0.33,8.55c-0.06,1.3-0.22,2.59-0.5,3.88c-0.75-2.72-1.14-5.46-1.56-8.21
			c-0.55-3.63-0.93-7.27-1.59-10.89c-0.42-2.33-0.58-4.73-0.97-7.08c-0.68-4.02-1.29-8.04-1.99-12.06
			c-0.72-4.11-1.48-8.21-2.44-12.26c-0.51-2.14-1.18-4.23-1.8-6.34c-0.16-0.56-0.49-0.89-1.13-1.04c-1.45-0.34-2.87-0.83-4.32-1.27
			c-1.65,5.08-2.31,10.33-2.93,15.57c-0.67,5.69-1.01,11.41-1.5,17.11c-0.22,2.55-0.17,5.15-0.84,7.66
			c-0.09,0.32-0.1,0.61-0.52,0.76c-0.91-3.49-1.3-7.05-1.78-10.6c-0.54-4-1.16-7.98-1.7-11.98c-0.37-2.78-0.63-5.57-0.99-8.34
			c-0.61-4.62-0.93-9.28-1.76-13.87c-0.28-1.52-0.09-3.11-0.52-4.64c-0.32-1.13,0.67-1.37,1.37-1.71c4.05-1.98,7.9-4.3,11.45-7.11
			c4.12-3.26,7.73-7.02,10.99-11.18c4.07-5.2,7.33-10.85,9.89-16.95c2.34-5.58,3.94-11.39,5.17-17.34
			c1.15-5.56,1.71-11.17,2.27-16.79c0.34-3.45,0.35-6.93,0.53-10.39c0.04-0.77,0.14-1.53,0.22-2.3c0.31-0.01,0.62-0.03,0.92-0.04
			c0.65,4.1,0.95,8.24,1.68,12.34c0.64,3.6,1.19,7.21,2.01,10.78c0.78,3.4,1.72,6.75,2.81,10.05c1.74,5.26,3.82,10.38,6.63,15.14
			c3.16,5.34,6.73,10.35,11.04,14.82c4.23,4.39,8.96,8.05,14.16,11.11c2.67,1.56,5.41,2.97,8.39,3.84c1.12,0.33,1.75,0.84,1.71,2.25
			c-0.16,4.76-0.32,9.53-0.64,14.28c-0.12,1.76,0.02,3.53-0.08,5.3c-0.3,5.33-0.36,10.68-0.64,16.01
			c-0.23,4.33-0.65,8.64-0.97,12.97c-0.02,0.33-0.06,0.62-0.43,0.84c-1.08-2.29-1.22-4.8-1.66-7.22c-0.87-4.77-1.55-9.56-2.4-14.34
			c-0.91-5.12-1.96-10.18-3.49-15.14c-0.36-1.17-0.48-2.71-1.28-3.36c-0.98-0.81-2.04,0.79-3.19,0.95
			c-2.56,0.35-2.46,2.66-2.78,4.36c-0.82,4.39-1.55,8.81-1.91,13.25c-0.31,3.81-0.62,7.63-0.93,11.43
			c-0.42,5.25-0.44,10.53-1.06,15.77c-0.31,2.67-0.21,5.39-0.35,8.08c-0.09,1.86-0.27,3.71-0.44,5.56
			c-0.01,0.16-0.24,0.31-0.45,0.55c-0.66-3.57-1.09-7.04-1.49-10.53c-0.44-3.85-1.25-7.66-1.62-11.51
			c-0.34-3.57-1.03-7.07-1.46-10.62c-0.38-3.12-1.14-6.19-1.56-9.3c-0.45-3.38-1.26-6.66-2-9.97c-0.17-0.75-0.57-1.45-0.67-2.19
			c-0.1-0.72-0.47-0.71-0.95-0.62c-0.38,0.07-0.76,0.33-1.11,0.29c-3.19-0.34-4.09,1.48-4.5,4.35c-0.65,4.58-1.32,9.15-1.73,13.77
			c-0.4,4.53-0.59,9.07-0.9,13.61c-0.19,2.85-0.24,5.7-0.28,8.56c-0.09,6.02-0.04,12.05-0.23,18.07c-0.1,3.05-0.08,6.1-0.21,9.15
			c-0.06,1.39-0.28,2.77-0.43,4.16C187.96,346.9,187.76,346.91,187.55,346.92z"/>
		<path class="st4" d="M17.28,175.41c5.1-0.27,10.2-0.56,15.3-0.8c1.83-0.08,3.66-0.03,5.5-0.13c4.32-0.24,8.67-0.05,12.99-0.36
			c5-0.36,10.01-0.58,15-1.05c5.42-0.51,10.82-1.15,16.19-2.12c0.59-0.11,1.18-0.25,1.76-0.4c1.01-0.27,2.81-0.43,2.89-0.88
			c0.28-1.64,0.6-3.35,0.36-5.05c-0.08-0.58-0.61-0.61-1.01-0.77c-1.84-0.74-3.78-1.05-5.7-1.41c-4.22-0.8-8.43-1.59-12.67-2.24
			c-3.41-0.53-6.86-0.74-10.26-1.31c-3.85-0.65-7.75-0.8-11.6-1.5c-2.74-0.5-5.55-0.61-8.33-0.94c-1.26-0.15-2.52-0.4-3.75-0.79
			c2.71-0.57,5.41-0.78,8.12-1.01c3.58-0.3,7.17-0.44,10.74-0.85c2.31-0.27,4.65-0.25,6.98-0.49c3.97-0.41,7.94-0.75,11.91-1.18
			c4.06-0.45,8.11-0.93,12.14-1.63c2.12-0.37,4.21-0.91,6.32-1.39c0.56-0.13,0.9-0.44,1.09-1.08c0.43-1.46,1.01-2.87,1.54-4.31
			c-4.85-2.04-9.92-3.08-15-4.08c-5.51-1.08-11.07-1.84-16.6-2.74c-2.47-0.4-5.02-0.54-7.42-1.4c-0.3-0.11-0.59-0.15-0.71-0.59
			c3.47-0.68,6.97-0.83,10.47-1.06c3.94-0.26,7.87-0.62,11.81-0.89c2.74-0.18,5.48-0.25,8.22-0.43c4.55-0.3,9.12-0.3,13.66-0.82
			c1.51-0.17,3.04,0.13,4.57-0.2c1.12-0.25,1.29,0.78,1.58,1.52c1.65,4.27,3.64,8.35,6.14,12.17c2.89,4.43,6.3,8.38,10.14,11.99
			c4.79,4.51,10.08,8.24,15.85,11.27c5.29,2.78,10.84,4.82,16.57,6.49c5.35,1.56,10.79,2.53,16.23,3.5
			c3.34,0.59,6.74,0.85,10.11,1.27c0.75,0.09,1.49,0.25,2.23,0.38c-0.01,0.32-0.02,0.63-0.03,0.95c-4.05,0.38-8.11,0.39-12.16,0.85
			c-3.56,0.4-7.12,0.71-10.66,1.29c-3.38,0.56-6.71,1.28-10.01,2.16c-5.25,1.4-10.4,3.16-15.24,5.7
			c-5.44,2.84-10.58,6.13-15.25,10.21c-4.58,4.01-8.49,8.57-11.84,13.66c-1.72,2.61-3.28,5.31-4.34,8.28
			c-0.4,1.11-0.95,1.73-2.31,1.58c-4.64-0.49-9.28-1-13.9-1.66c-1.71-0.24-3.44-0.23-5.17-0.46c-5.18-0.68-10.4-1.11-15.59-1.78
			c-4.21-0.54-8.39-1.27-12.59-1.9c-0.32-0.05-0.6-0.1-0.79-0.5c2.31-0.94,4.77-0.91,7.16-1.19c4.71-0.55,9.45-0.91,14.16-1.44
			c5.06-0.57,10.08-1.28,15.03-2.49c1.16-0.29,2.68-0.3,3.37-1.07c0.86-0.95-0.63-2.13-0.7-3.32c-0.16-2.63-2.43-2.69-4.06-3.14
			c-4.22-1.14-8.49-2.2-12.8-2.88c-3.69-0.58-7.4-1.17-11.1-1.75c-5.1-0.8-10.24-1.19-15.32-2.19c-2.58-0.51-5.24-0.59-7.86-0.92
			c-1.8-0.23-3.6-0.53-5.39-0.83c-0.16-0.03-0.28-0.27-0.5-0.49c3.53-0.42,6.95-0.62,10.38-0.78c3.79-0.17,7.56-0.74,11.35-0.84
			c3.51-0.1,6.98-0.55,10.47-0.74c3.07-0.17,6.12-0.73,9.19-0.93c3.33-0.22,6.59-0.82,9.88-1.34c0.74-0.12,1.45-0.48,2.19-0.53
			c0.71-0.05,0.72-0.43,0.67-0.92c-0.04-0.39-0.27-0.79-0.21-1.16c0.56-3.23-1.15-4.27-3.93-4.89c-4.43-0.99-8.84-1.99-13.32-2.73
			c-4.4-0.73-8.82-1.24-13.22-1.87c-2.76-0.39-5.55-0.65-8.33-0.89c-5.88-0.52-11.76-0.89-17.63-1.51
			c-2.97-0.32-5.95-0.51-8.92-0.86c-1.35-0.16-2.69-0.48-4.03-0.73C17.27,175.83,17.27,175.62,17.28,175.41z"/>
	</g>
	<g class="st1">
		<path d="M142.79,198.5c-0.18-0.65-0.38-1.18-0.47-1.73c-0.75-4.53-1.5-9.05-2.2-13.58c-0.76-4.86-1.51-9.72-2.19-14.59
			c-1-7.16-1.59-14.36-1.77-21.59c-0.05-1.91-0.15-3.82-0.13-5.73c0.06-4.77,0.25-9.53,1.39-14.19c0.48-1.98,1.23-3.84,2.39-5.53
			c1.36-1.98,3.23-3.15,5.61-3.4c1.37-0.14,2.7,0.24,3.96,0.79c3.03,1.32,4.99,3.73,6.52,6.55c2.53,4.65,3.47,9.67,3.45,14.92
			c-0.02,5.16-0.69,10.25-1.55,15.32c-0.74,4.35-1.53,8.69-2.3,13.04c-0.02,0.12-0.02,0.25-0.04,0.49
			c7.14-6.04,15.27-9.22,24.55-9.19c9.28,0.03,17.39,3.26,24.53,9.37c-0.32-1.85-0.62-3.53-0.89-5.21
			c-0.84-5.16-1.76-10.3-2.49-15.47c-0.64-4.53-0.87-9.1-0.21-13.66c0.69-4.75,2.25-9.16,5.35-12.91c1.88-2.27,4.28-3.74,7.24-4.01
			c2.11-0.19,3.98,0.57,5.49,2.08c1.8,1.79,2.83,4.04,3.37,6.46c0.53,2.39,0.89,4.83,1.18,7.27c0.56,4.72,0.38,9.48,0.22,14.21
			c-0.22,6.6-0.74,13.2-1.7,19.74c-1.23,8.36-2.55,16.71-3.83,25.06c-0.18,1.17-0.35,2.35-0.6,3.5c-0.14,0.67-0.43,1.31-0.65,1.99
			C192.26,198.5,167.5,198.5,142.79,198.5z M213.33,195.24c-0.73-17.18-15.7-33.13-35.56-31.74c-18.33,1.28-30.39,16.93-30.86,31.73
			c2.77,0,5.54,0,8.33,0c-1.82-4.27-1.37-7.31,1.4-9.58c2.4-1.96,5.9-2.13,8.42-0.41c1.33,0.91,2.29,2.12,2.77,3.66
			c0.71,2.22,0.37,4.32-0.9,6.32c3.14,0,6.19,0,9.32,0c-0.32-0.54-0.6-0.99-0.85-1.44c-0.47-0.85,0.06-1.86,1.03-1.95
			c2.77-0.26,5.53-0.17,8.28,0.18c0.1,0.01,0.22,0.04,0.3,0.1c0.34,0.28,0.56,1.42,0.36,1.84c-0.2,0.43-0.41,0.84-0.63,1.28
			c3.03,0,5.98,0,8.96,0c-2.45-4.2-2.24-7.55,0.61-10.09c2.5-2.23,6.21-2.39,8.94-0.38c1.34,0.99,2.21,2.31,2.62,3.92
			c0.61,2.43-0.02,4.58-1.61,6.57C207.34,195.24,210.31,195.24,213.33,195.24z M139.31,131.38c-0.13,1.78-0.35,3.38-0.35,4.97
			c-0.02,4.57,0,9.13,0.08,13.7c0.11,6.64,0.92,13.22,1.8,19.79c0.56,4.2,1.27,8.37,1.92,12.56c0.31,2,0.62,4,0.97,6.18
			c0.11-0.26,0.16-0.35,0.18-0.44c1.46-5.69,4.12-10.75,7.93-15.22c0.19-0.22,0.3-0.54,0.35-0.82c0.7-3.98,1.34-7.96,2.07-11.93
			c0.95-5.2,1.83-10.42,2.24-15.7c0.09-1.11,0.11-1.13-0.92-1.64c-4.83-2.43-9.29-5.41-13.4-8.91
			C141.25,133.13,140.37,132.31,139.31,131.38z M216.18,188.94c0.57-3.74,1.07-7.31,1.67-10.86c1.33-7.9,2.36-15.84,2.87-23.84
			c0.41-6.4,0.5-12.81,0.22-19.22c-0.04-0.92-0.16-1.84-0.26-2.86c-0.29,0.23-0.47,0.36-0.63,0.5c-1.64,1.4-3.25,2.82-4.91,4.19
			c-3.67,3.03-7.36,6.04-11.05,9.05c-0.32,0.26-0.44,0.53-0.38,0.96c0.19,1.37,0.27,2.76,0.49,4.12c1.19,7.1,2.41,14.19,3.63,21.28
			c0.07,0.39,0.27,0.79,0.52,1.09c2.89,3.51,5.13,7.38,6.61,11.69C215.38,186.26,215.73,187.52,216.18,188.94z M201.77,189.52
			c0.95,0.01,1.73-0.74,1.76-1.68c0.03-0.97-0.75-1.77-1.72-1.78c-0.98-0.01-1.76,0.77-1.76,1.75
			C200.05,188.75,200.82,189.51,201.77,189.52z M162.99,190.56c0.96,0.01,1.73-0.73,1.75-1.68c0.02-0.98-0.74-1.77-1.72-1.78
			c-0.96-0.01-1.72,0.72-1.75,1.68C161.25,189.76,162,190.55,162.99,190.56z"/>
		<path class="st5" d="M213.33,195.24c-3.02,0-5.99,0-9.08,0c1.6-1.98,2.22-4.14,1.61-6.57c-0.4-1.62-1.28-2.93-2.62-3.92
			c-2.73-2.01-6.44-1.85-8.94,0.38c-2.85,2.54-3.06,5.89-0.61,10.09c-2.98,0-5.93,0-8.96,0c0.22-0.44,0.43-0.86,0.63-1.28
			c0.2-0.42-0.03-1.56-0.36-1.84c-0.07-0.06-0.19-0.09-0.3-0.1c-2.75-0.35-5.51-0.44-8.28-0.18c-0.97,0.09-1.5,1.1-1.03,1.95
			c0.25,0.46,0.53,0.9,0.85,1.44c-3.14,0-6.18,0-9.32,0c1.27-1.99,1.61-4.1,0.9-6.32c-0.49-1.54-1.44-2.75-2.77-3.66
			c-2.52-1.73-6.02-1.56-8.42,0.41c-2.77,2.26-3.22,5.3-1.4,9.58c-2.79,0-5.56,0-8.33,0c0.46-14.8,12.53-30.44,30.86-31.73
			C197.63,162.1,212.59,178.06,213.33,195.24z"/>
		<path class="st6" d="M139.31,131.38c1.06,0.94,1.94,1.75,2.86,2.53c4.11,3.5,8.57,6.48,13.4,8.91c1.02,0.51,1,0.53,0.92,1.64
			c-0.41,5.28-1.29,10.49-2.24,15.7c-0.73,3.97-1.37,7.95-2.07,11.93c-0.05,0.29-0.16,0.61-0.35,0.82
			c-3.81,4.47-6.46,9.53-7.93,15.22c-0.02,0.09-0.07,0.18-0.18,0.44c-0.34-2.18-0.66-4.18-0.97-6.18
			c-0.65-4.18-1.36-8.36-1.92-12.56c-0.88-6.57-1.68-13.15-1.8-19.79c-0.08-4.57-0.1-9.13-0.08-13.7
			C138.97,134.75,139.18,133.16,139.31,131.38z"/>
		<path class="st7" d="M216.18,188.94c-0.44-1.42-0.8-2.68-1.22-3.91c-1.48-4.3-3.72-8.18-6.61-11.69c-0.25-0.3-0.45-0.71-0.52-1.09
			c-1.23-7.09-2.45-14.18-3.63-21.28c-0.23-1.36-0.31-2.75-0.49-4.12c-0.06-0.43,0.06-0.69,0.38-0.96
			c3.69-3.01,7.38-6.02,11.05-9.05c1.66-1.37,3.28-2.79,4.91-4.19c0.17-0.14,0.34-0.27,0.63-0.5c0.1,1.02,0.22,1.94,0.26,2.86
			c0.29,6.41,0.19,12.82-0.22,19.22c-0.51,8-1.54,15.94-2.87,23.84C217.25,181.64,216.75,185.2,216.18,188.94z"/>
		<path class="st5" d="M201.77,189.52c-0.95-0.01-1.72-0.77-1.72-1.71c0-0.98,0.78-1.76,1.76-1.75c0.97,0.01,1.75,0.81,1.72,1.78
			C203.5,188.78,202.72,189.53,201.77,189.52z"/>
		<path class="st5" d="M162.99,190.56c-0.99-0.01-1.74-0.79-1.71-1.78c0.03-0.95,0.79-1.69,1.75-1.68c0.98,0.01,1.74,0.8,1.72,1.78
			C164.71,189.83,163.94,190.56,162.99,190.56z"/>
	</g>
</g>
<g id="Layer_4">
	<path class="st8" d="M345.34,276.15H15.47c-6.6,0-12-5.4-12-12V90.53c0-6.6,5.4-12,12-12h329.87c6.6,0,12,5.4,12,12v173.62
		C357.34,270.75,351.94,276.15,345.34,276.15z"/>
	<rect x="13.79" y="94.24" class="st9" width="332.43" height="171.52"/>
	<rect x="13.79" y="94.24" class="st10" width="331.98" height="16.21"/>
	<path class="st9" d="M338.45,108.15h-8.17c-3.09,0-5.62-2.53-5.62-5.62v0c0-3.09,2.53-5.62,5.62-5.62h8.17
		c3.09,0,5.62,2.53,5.62,5.62v0C344.06,105.62,341.54,108.15,338.45,108.15z"/>
	<path class="st11" d="M316.83,107.98h-0.68c-3.28,0-5.96-2.68-5.96-5.96v0c0-3.28,2.68-5.96,5.96-5.96h0.68
		c3.28,0,5.96,2.68,5.96,5.96v0C322.79,105.3,320.11,107.98,316.83,107.98z"/>
	<rect x="18.96" y="116.32" class="st12" width="322.38" height="82.72"/>
	<rect x="18.96" y="202.62" class="st12" width="199.49" height="58.21"/>
	<rect x="223.21" y="202.62" class="st12" width="118.13" height="58.21"/>
	<g id="Layer_5">
		<path class="st13" d="M254.94,165.74h-36.66c-6.6,0-12-5.4-12-12v-7.71c0-6.6,5.4-12,12-12h36.66c6.6,0,12,5.4,12,12v7.71
			C266.94,160.34,261.54,165.74,254.94,165.74z"/>
		<path class="st7" d="M255.09,165.13c-0.94,2.01-2.32,4.46-4.31,7.02c-2.25,2.89-4.58,5-6.47,6.47c-1.36-1.39-2.96-3.31-4.43-5.79
			c-1.85-3.12-2.83-6.05-3.37-8.22C242.71,164.79,248.9,164.96,255.09,165.13z"/>
		<path class="st7" d="M250.77,167.97h-36.66c-6.6,0-12-5.4-12-12v-7.71c0-6.6,5.4-12,12-12h36.66c6.6,0,12,5.4,12,12v7.71
			C262.77,162.57,257.37,167.97,250.77,167.97z"/>
	</g>
	<g id="Layer_5_copy">
		<path class="st14" d="M113.85,193.75H43.77c-6.6,0-12-5.4-12-12v-25.17c0-6.6,5.4-12,12-12h70.08c6.6,0,12,5.4,12,12v25.17
			C125.85,188.35,120.45,193.75,113.85,193.75z"/>
		<path class="st6" d="M68.31,195.45c-0.43,2.91-1.75,8.83-6.46,14.14c-1.93,2.17-3.95,3.71-5.65,4.78c-2.33-1.62-5.4-4.14-8.3-7.84
			c-3.51-4.48-5.34-8.86-6.3-11.82C50.5,194.96,59.41,195.21,68.31,195.45z"/>
		<path class="st6" d="M105.49,200.21H42.19c-6.6,0-12-5.4-12-12v-21.63c0-6.6,5.4-12,12-12h63.29c6.6,0,12,5.4,12,12v21.63
			C117.49,194.81,112.09,200.21,105.49,200.21z"/>
	</g>
	<g id="Layer_7">
		<path class="st15" d="M222.17,151.51c0.07,5.62-7.88,5.62-7.81,0C214.29,145.89,222.25,145.89,222.17,151.51z"/>
		<path class="st15" d="M235.97,151.51c0.07,5.62-7.88,5.62-7.81,0C228.08,145.89,236.04,145.89,235.97,151.51z"/>
		<path class="st15" d="M249.77,151.8c0.07,5.62-7.88,5.62-7.81,0C241.88,146.18,249.84,146.18,249.77,151.8z"/>
	</g>
	<g id="Layer_8">
		<path class="st16" d="M107.47,169.43h-67.4c-1.5,0-2.72-1.23-2.72-2.72v0c0-1.5,1.23-2.72,2.72-2.72h67.4
			c1.5,0,2.72,1.23,2.72,2.72v0C110.19,168.2,108.97,169.43,107.47,169.43z"/>
		<path class="st16" d="M107.13,180.66h-67.4c-1.5,0-2.72-1.23-2.72-2.72l0,0c0-1.5,1.23-2.72,2.72-2.72h67.4
			c1.5,0,2.72,1.23,2.72,2.72l0,0C109.85,179.43,108.63,180.66,107.13,180.66z"/>
		<path class="st16" d="M107.13,191.89h-67.4c-1.5,0-2.72-1.23-2.72-2.72l0,0c0-1.5,1.23-2.72,2.72-2.72h67.4
			c1.5,0,2.72,1.23,2.72,2.72l0,0C109.85,190.67,108.63,191.89,107.13,191.89z"/>
	</g>
	<g id="Layer_9">
		<path class="st10" d="M345.3,286.36H20.87c-2.9,0-5.28-2.37-5.28-5.28v-0.17c0-2.9,2.37-5.28,5.28-5.28H345.3
			c2.9,0,5.28,2.37,5.28,5.28v0.17C350.57,283.99,348.2,286.36,345.3,286.36z"/>
		<path class="st17" d="M206.3,279.72h-46.43c-1.31,0-2.38-1.07-2.38-2.38l0,0c0-1.31,1.07-2.38,2.38-2.38h46.43
			c1.31,0,2.38,1.07,2.38,2.38l0,0C208.68,278.65,207.61,279.72,206.3,279.72z"/>
	</g>
	<g id="Layer_9_copy">
		<circle class="st18" cx="180" cy="87.21" r="5.62"/>
	</g>
</g>
</svg>
